<svg width="299" height="298" viewBox="0 0 299 298" fill="none" xmlns="http://www.w3.org/2000/svg">
<path d="M158.559 100.427L158.373 9.31895C158.363 4.18352 154.209 0.0204987 149.073 0.000316593C143.895 -0.0198655 139.689 4.17893 139.7 9.35747L139.891 100.343C139.92 105.501 138.921 110.606 136.952 115.362C134.983 120.117 132.085 124.429 128.424 128.045C124.785 131.698 120.447 134.587 115.666 136.543C110.885 138.5 105.756 139.486 100.575 139.442L9.36078 138.981C4.18717 138.955 -0.0162496 143.15 4.72279e-05 148.324C0.0161578 153.438 4.1529 157.583 9.26693 157.608L100.651 158.067C111.081 158.152 121.083 162.351 128.471 169.746C135.861 177.141 140.035 187.131 140.085 197.535L140.271 288.605C140.282 293.737 144.432 297.898 149.564 297.921C154.742 297.944 158.95 293.747 158.94 288.569L158.767 197.598C158.792 187.21 162.933 177.283 170.285 169.977C177.638 162.672 187.607 158.58 198.021 158.594L289.258 159.051C294.428 159.077 298.629 154.886 298.615 149.716C298.602 144.602 294.466 140.456 289.352 140.43L197.962 139.966C187.526 139.872 177.52 135.659 170.137 128.25C162.754 120.841 158.59 110.837 158.559 100.427Z" fill="#1B238D"/>
</svg>
