<svg width="471" height="85" viewBox="0 0 471 85" fill="none" xmlns="http://www.w3.org/2000/svg">
<g clip-path="url(#clip0_1_1675)">
<path opacity="0.04" d="M291.988 229.503H417.441C444.275 229.503 467.084 209.377 470.439 182.543V47.6973C470.439 21.5333 448.971 0.736328 422.808 0.736328H47.7907C21.6267 0.736328 0.829712 21.5333 0.829712 47.6973V423.385C0.829712 448.878 21.6267 470.345 47.7907 470.345H422.808C448.971 470.345 469.768 448.878 469.768 423.385V287.869C467.084 261.705 444.275 240.908 417.441 240.908H291.988C262.47 240.908 238.989 264.389 238.989 293.907V350.931H227.584V125.183C227.584 122.033 230.137 119.48 233.287 119.48C236.436 119.48 238.989 122.033 238.989 125.183V176.505C238.989 206.023 262.47 229.503 291.988 229.503Z" fill="#1B238D"/>
</g>
<defs>
<clipPath id="clip0_1_1675">
<rect width="470.39" height="470.39" fill="white" transform="translate(0.439606 0.190186)"/>
</clipPath>
</defs>
</svg>
